<svg xmlns="http://www.w3.org/2000/svg" xmlns:xlink="http://www.w3.org/1999/xlink" version="1.1" id="Layer_1" x="0px" y="0px" style="enable-background:new 0 0 840 840;" xml:space="preserve" viewBox="199.14 140.1 434.06 506.7">
<style type="text/css">
	.st0{fill:#FFFFFF;stroke:#FFFFFF;stroke-miterlimit:10;}
	.st1{fill:none;stroke:#FFFFFF;stroke-miterlimit:10;}
	.st2{enable-background:new    ;}
	.st3{fill:#FFFFFF;}
</style>
<g id="Layer_2_00000101812015982553059590000003613804917577007284_">
	<g id="XMLID_00000093138476316390514040000000114879368123263671_">
		<g>
			<path class="st0" d="M428.2,356.9h204.5c0,113-91.5,204.5-204.5,204.5V356.9L428.2,356.9z"/>
		</g>
		<g>
			<path class="st1" d="M428.2,356.9h204.5c0,113-91.5,204.5-204.5,204.5V356.9L428.2,356.9z"/>
		</g>
	</g>
	<g id="XMLID_00000083788869835725277100000011580444373456137348_">
		<g>
			<path class="st0" d="M428.2,140.6h204.5c0,113-91.5,204.5-204.5,204.5V140.6L428.2,140.6z"/>
		</g>
		<g>
			<path class="st1" d="M428.2,140.6h204.5c0,113-91.5,204.5-204.5,204.5V140.6L428.2,140.6z"/>
		</g>
	</g>
</g>
<g id="Layer_3">
	<path class="st0" d="M413.3,561.1c-23,1.1-59.8-0.4-99.3-17.4c-11.5-5-33.5-14.7-55.6-35.5c-25.8-24.3-36.9-49.8-42.5-62.8   c-14.2-33.5-15.4-62-16-82.2c-0.6-18.6-1.2-47.6,10.8-82.6c3-8.9,14.9-41.7,40.6-70.7c56.7-64,144.4-68.5,162.5-69.1   c0,22.8,0,45.6,0,68.4c-10.9-0.3-58.4-0.5-97.1,34.8c-40.1,36.6-44.1,87.2-44.9,99.8c-0.9,13.3-5.2,82.3,47.9,123.7   c37.6,29.4,81.2,26.9,93.3,25.8C413.1,515.8,413.2,538.5,413.3,561.1z"/>
</g>
<g id="Layer_4">
</g>
</svg>