<svg xmlns="http://www.w3.org/2000/svg" xmlns:xlink="http://www.w3.org/1999/xlink" version="1.1" id="Layer_1" x="0px" y="0px" style="enable-background:new 0 0 840 840;" xml:space="preserve" viewBox="199.14 140.1 434.06 506.7">
<style type="text/css">
	.st0{fill:#FFFFFF;stroke:#FFFFFF;stroke-miterlimit:10;}
	.st1{fill:none;stroke:#FFFFFF;stroke-miterlimit:10;}
	.st2{enable-background:new    ;}
	.st3{fill:#FFFFFF;}
</style>
<g id="Layer_2_00000101812015982553059590000003613804917577007284_">
	<g id="XMLID_00000093138476316390514040000000114879368123263671_">
		<g>
			<path class="st0" d="M428.2,356.9h204.5c0,113-91.5,204.5-204.5,204.5V356.9L428.2,356.9z"/>
		</g>
		<g>
			<path class="st1" d="M428.2,356.9h204.5c0,113-91.5,204.5-204.5,204.5V356.9L428.2,356.9z"/>
		</g>
	</g>
	<g id="XMLID_00000083788869835725277100000011580444373456137348_">
		<g>
			<path class="st0" d="M428.2,140.6h204.5c0,113-91.5,204.5-204.5,204.5V140.6L428.2,140.6z"/>
		</g>
		<g>
			<path class="st1" d="M428.2,140.6h204.5c0,113-91.5,204.5-204.5,204.5V140.6L428.2,140.6z"/>
		</g>
	</g>
</g>
<g id="Layer_3">
	<path class="st0" d="M413.3,561.1c-23,1.1-59.8-0.4-99.3-17.4c-11.5-5-33.5-14.7-55.6-35.5c-25.8-24.3-36.9-49.8-42.5-62.8   c-14.2-33.5-15.4-62-16-82.2c-0.6-18.6-1.2-47.6,10.8-82.6c3-8.9,14.9-41.7,40.6-70.7c56.7-64,144.4-68.5,162.5-69.1   c0,22.8,0,45.6,0,68.4c-10.9-0.3-58.4-0.5-97.1,34.8c-40.1,36.6-44.1,87.2-44.9,99.8c-0.9,13.3-5.2,82.3,47.9,123.7   c37.6,29.4,81.2,26.9,93.3,25.8C413.1,515.8,413.2,538.5,413.3,561.1z"/>
</g>
<g id="Layer_4">
</g>
<g class="st2">
	<path class="st3" d="M244.4,629.7c-1.6,10.7-8.4,17-18.8,17c-12.5,0-20.1-9-20.1-23.9c0-5.9,1.3-10.7,4.1-14.9   c3.8-5.6,9.1-8.3,16.6-8.3c9.4,0,15.3,4.7,17.6,13.8h-4.4c-2.1-6.7-6.5-9.9-13.4-9.9c-10,0-16,7.5-16,19.9   c0,11.8,6.1,19.4,15.7,19.4c7.6,0,13.4-5.2,14.4-13.1H244.4z"/>
	<path class="st3" d="M267.2,600.4h4.5V642h23.4v3.8h-28V600.4z"/>
	<path class="st3" d="M329.7,600.4h4.7l17.6,45.4h-4.7l-5.4-14.3h-19.9l-5.3,14.3H312L329.7,600.4z M340.7,627.9l-8.7-23.2   l-8.6,23.2H340.7z"/>
	<path class="st3" d="M373.1,600.4h4.5l25.6,38.8v-38.8h4v45.4h-4.5L377.1,607v38.8h-4V600.4z"/>
	<path class="st3" d="M432.8,600.4H450c5,0,6.9,0.3,9.1,1.3c3.6,1.7,5.7,5.4,5.7,10c0,4.8-1.9,7.7-6.4,10c5.9,1.9,8.4,5.2,8.4,11   c0,5.7-2.8,10.2-7.4,12c-2.2,0.8-4.1,1.1-8.8,1.1h-17.8V600.4z M449.3,620.5c3.7,0,5-0.1,6.5-0.7c2.9-1.1,4.7-4,4.7-7.6   c0-3.7-1.8-6.5-4.7-7.4c-1.5-0.4-2.8-0.5-6.7-0.5h-11.9v16.3H449.3z M450.6,642c3.9,0,5.5-0.2,7.3-1c3.2-1.3,4.7-3.7,4.7-7.9   c0-4.6-1.8-7.4-5.6-8.5c-1.5-0.5-3-0.6-6.4-0.6h-13.2v18H450.6z"/>
	<path class="st3" d="M503.4,600.4h4.7l17.6,45.4H521l-5.4-14.3h-19.9l-5.3,14.3h-4.7L503.4,600.4z M514.4,627.9l-8.7-23.2   l-8.6,23.2H514.4z"/>
	<path class="st3" d="M548.5,630.8c0.5,8.2,4.7,12,12.9,12c7.4,0,11.8-3.5,11.8-9.4c0-2.7-1-4.7-3.1-5.9c-2.1-1.3-4.7-2-11.1-3.3   c-5.7-1.2-8.6-2.3-10.5-4c-2-1.8-3.2-4.8-3.2-8.1c0-7.7,5.9-12.5,15.5-12.5c9.9,0,15.1,4.4,16,13.4h-4.5c-0.1-3-0.5-4.4-2-6   c-2.1-2.4-5.1-3.5-9.5-3.5c-6.8,0-11.1,3.3-11.1,8.6c0,4.6,2.6,6.7,10.9,8.2c7,1.3,9.7,2.1,12.2,3.7c3,1.8,4.7,5.2,4.7,9   c0,8.2-6.6,13.8-16.3,13.8c-6.6,0-11.7-2.2-14.5-6.3c-1.9-2.7-2.6-5.3-2.7-9.6H548.5z"/>
	<path class="st3" d="M601,600.4h30.3v3.9h-25.7v16.4h23.6v3.7h-23.6V642h26.3v3.8H601V600.4z"/>
</g>
</svg>